<svg xmlns="http://www.w3.org/2000/svg" viewBox="0 0 1000 1000" enable-background="new 0 0 1000 1000"><path fill="#FFA300" d="M173.2 397.2c32.6 0 59 26.4 59 59s-26.4 59-59 59-59-26.4-59-59 26.6-59 59-59z"/><path fill="#C13C27" d="M729.2 818.2c17.9 0 32.5 14.6 32.5 32.5s-14.6 32.5-32.5 32.5-32.5-14.6-32.5-32.5 14.6-32.5 32.5-32.5z"/><path fill="#F56400" d="M520.8 116.8c32.6 0 59 26.4 59 59s-26.4 59-59 59-59-26.4-59-59 26.4-59 59-59z"/><path fill="#FFA300" d="M264.8 802.2c17.9 0 32.5 14.6 32.5 32.5s-14.6 32.5-32.5 32.5-32.5-14.6-32.5-32.5 14.5-32.5 32.5-32.5z"/><path fill="#C13C27" d="M853.2 421.2c17.9 0 32.5 14.6 32.5 32.5s-14.6 32.5-32.5 32.5-32.5-14.6-32.5-32.5c.1-17.9 14.6-32.5 32.5-32.5z"/></svg>